<svg width="800" height="800" viewBox="0 0 800 800" fill="none" xmlns="http://www.w3.org/2000/svg">
<path d="M725.65 329.3C725.65 285.695 671.078 244.371 587.406 218.744C606.715 133.411 598.134 65.5206 560.319 43.7848C551.603 38.6862 541.415 36.2711 530.285 36.2711V66.1915C536.452 66.1915 541.415 67.3991 545.57 69.6798C563.806 80.1451 571.719 119.994 565.548 171.247C564.076 183.86 561.662 197.142 558.712 210.694C532.429 204.254 503.735 199.289 473.565 196.069C455.465 171.247 436.692 148.707 417.784 128.984C461.497 88.3297 502.529 66.0571 530.42 66.0571V36.137C493.543 36.137 445.273 62.4346 396.466 108.053C347.656 62.7028 299.386 36.6737 262.513 36.6737V66.5938C290.268 66.5938 331.433 88.7323 375.145 129.118C356.373 148.841 337.6 171.247 319.766 196.069C289.462 199.289 260.768 204.254 234.487 210.828C231.402 197.411 229.123 184.396 227.513 171.918C221.214 120.665 228.989 80.816 247.092 70.2165C251.113 67.8014 256.342 66.7282 262.513 66.7282V36.8078C251.248 36.8078 241.057 39.223 232.209 44.3215C194.529 66.0571 186.082 133.814 205.524 218.878C122.122 244.639 67.8162 285.83 67.8162 329.3C67.8162 372.908 122.39 414.233 206.06 439.858C186.751 525.192 195.332 593.081 233.147 614.817C241.863 619.915 252.052 622.33 263.316 622.33C300.19 622.33 348.463 596.033 397.27 550.415C446.077 595.766 494.35 621.796 531.223 621.796C542.485 621.796 552.676 619.381 561.528 614.28C599.205 592.544 607.654 524.787 588.21 439.726C671.344 414.098 725.65 372.773 725.65 329.3ZM551.069 239.809C546.107 257.118 539.94 274.96 532.965 292.806C527.469 282.074 521.704 271.339 515.401 260.605C509.234 249.872 502.661 239.407 496.092 229.21C515.131 232.027 533.502 235.516 551.069 239.809ZM489.654 382.701C479.196 400.816 468.471 417.989 457.341 433.956C437.361 435.699 417.116 436.638 396.733 436.638C376.485 436.638 356.238 435.699 336.395 434.088C325.265 418.121 314.402 401.083 303.944 383.103C293.752 365.528 284.503 347.682 276.053 329.705C284.368 311.725 293.752 293.745 303.812 276.17C314.27 258.057 324.995 240.882 336.125 224.916C356.106 223.172 376.351 222.233 396.733 222.233C416.981 222.233 437.229 223.172 457.072 224.782C468.201 240.748 479.064 257.787 489.523 275.768C499.714 293.343 508.964 311.188 517.413 329.168C508.964 347.145 499.714 365.126 489.654 382.701ZM532.965 365.261C540.004 382.746 546.18 400.566 551.471 418.658C533.904 422.951 515.401 426.576 496.227 429.393C502.796 419.063 509.366 408.463 515.536 397.594C521.704 386.862 527.469 375.992 532.965 365.261ZM397 508.421C384.53 495.538 372.06 481.182 359.725 465.485C371.793 466.022 384.128 466.424 396.598 466.424C409.203 466.424 421.673 466.157 433.877 465.485C422.367 480.452 410.056 494.785 397 508.421ZM297.24 429.393C278.2 426.576 259.829 423.086 242.265 418.793C247.224 401.485 253.395 383.64 260.366 365.795C265.865 376.529 271.631 387.264 277.93 397.996C284.233 408.73 290.67 419.195 297.24 429.393ZM396.331 150.183C408.801 163.063 421.272 177.419 433.607 193.117C421.538 192.581 409.203 192.178 396.733 192.178C384.128 192.178 371.658 192.447 359.458 193.117C370.967 178.151 383.276 163.819 396.331 150.183ZM297.105 229.21C290.535 239.541 283.966 250.14 277.798 261.007C271.631 271.741 265.865 282.476 260.366 293.208C253.327 275.723 247.152 257.901 241.863 239.809C259.428 235.65 277.93 232.027 297.105 229.21ZM175.756 397.192C128.29 376.931 97.5836 350.368 97.5836 329.3C97.5836 308.236 128.29 281.537 175.756 261.412C187.288 256.446 199.893 252.019 212.899 247.859C220.542 274.156 230.599 301.527 243.069 329.57C230.734 357.478 220.809 384.714 213.301 410.879C200.028 406.717 187.423 402.157 175.756 397.192ZM247.896 588.923C229.66 578.458 221.748 538.609 227.918 487.354C229.393 474.744 231.804 461.459 234.754 447.907C261.038 454.349 289.732 459.314 319.901 462.533C338.002 487.354 356.774 509.894 375.682 529.618C331.969 570.273 290.937 592.544 263.047 592.544C257.014 592.412 251.92 591.203 247.896 588.923ZM565.953 486.685C572.253 537.937 564.478 577.786 546.374 588.386C542.353 590.801 537.124 591.875 530.953 591.875C503.198 591.875 462.034 569.736 418.321 529.351C437.094 509.627 455.866 487.222 473.7 462.398C504.005 459.179 532.699 454.214 558.979 447.64C562.064 461.192 564.478 474.207 565.953 486.685ZM617.575 397.192C606.044 402.157 593.439 406.585 580.432 410.744C572.789 384.447 562.733 357.076 550.263 329.033C562.601 301.125 572.522 273.889 580.03 247.725C593.307 251.884 605.909 256.446 617.71 261.412C665.177 281.669 695.883 308.236 695.883 329.3C695.748 350.368 665.042 377.066 617.575 397.192Z" fill="#61DAFB"/>
<path d="M396.598 390.618C430.443 390.618 457.878 363.166 457.878 329.3C457.878 295.437 430.443 267.985 396.598 267.985C362.756 267.985 335.321 295.437 335.321 329.3C335.321 363.166 362.756 390.618 396.598 390.618ZM97.6871 727.904H77.4588V762.763H66.0436V676.592H94.5523C104.252 676.592 111.705 678.803 116.91 683.222C122.154 687.638 124.776 694.071 124.776 702.513C124.776 707.881 123.317 712.555 120.399 716.542C117.521 720.526 113.499 723.506 108.334 725.477L128.562 762.052V762.763H116.377L97.6871 727.904ZM77.4588 718.612H94.9073C100.546 718.612 105.021 717.151 108.334 714.232C111.685 711.313 113.361 707.407 113.361 702.513C113.361 697.188 111.764 693.105 108.57 690.263C105.416 687.422 100.842 685.982 94.848 685.943H77.4588V718.612ZM165.589 763.948C156.913 763.948 149.854 761.107 144.413 755.425C138.971 749.703 136.251 742.068 136.251 732.521V730.508C136.251 724.157 137.453 718.495 139.859 713.524C142.303 708.511 145.695 704.604 150.032 701.805C154.409 698.964 159.141 697.542 164.227 697.542C172.548 697.542 179.015 700.284 183.627 705.768C188.241 711.253 190.547 719.104 190.547 729.323V733.88H147.193C147.351 740.196 149.184 745.305 152.694 749.211C156.242 753.076 160.737 755.011 166.179 755.011C170.044 755.011 173.316 754.222 175.996 752.644C178.68 751.066 181.024 748.974 183.036 746.37L189.719 751.579C184.355 759.823 176.314 763.948 165.589 763.948ZM164.227 706.54C159.811 706.54 156.104 708.157 153.108 711.391C150.111 714.589 148.258 719.086 147.548 724.886H179.606V724.058C179.291 718.495 177.792 714.193 175.111 711.154C172.428 708.079 168.8 706.54 164.227 706.54ZM242.775 762.763C242.142 761.5 241.63 759.253 241.237 756.016C236.149 761.302 230.077 763.948 223.019 763.948C216.71 763.948 211.526 762.172 207.464 758.62C203.443 755.029 201.431 750.493 201.431 745.008C201.431 738.342 203.955 733.172 209.002 729.503C214.087 725.792 221.226 723.938 230.413 723.938H241.06V718.909C241.06 715.081 239.914 712.042 237.63 709.795C235.342 707.506 231.969 706.363 227.513 706.363C223.61 706.363 220.338 707.347 217.697 709.321C215.055 711.292 213.733 713.68 213.733 716.482H202.732C202.732 713.287 203.857 710.209 206.102 707.248C208.39 704.25 211.466 701.883 215.331 700.146C219.235 698.412 223.511 697.542 228.164 697.542C235.54 697.542 241.315 699.396 245.494 703.107C249.674 706.777 251.842 711.847 252.001 718.315V747.789C252.001 753.67 252.75 758.344 254.249 761.815V762.763H242.775ZM224.617 754.42C228.047 754.42 231.3 753.532 234.377 751.756C237.45 749.979 239.678 747.672 241.06 744.831V731.693H232.482C219.076 731.693 212.372 735.617 212.372 743.469C212.372 746.901 213.517 749.586 215.802 751.519C218.09 753.451 221.028 754.42 224.617 754.42ZM294.823 755.011C298.727 755.011 302.139 753.826 305.056 751.459C307.974 749.091 309.59 746.133 309.905 742.581H320.258C320.06 746.25 318.798 749.742 316.471 753.058C314.144 756.373 311.029 759.016 307.125 760.987C303.26 762.961 299.161 763.948 294.823 763.948C286.11 763.948 279.169 761.047 274.003 755.248C268.878 749.406 266.315 741.438 266.315 731.336V729.503C266.315 723.269 267.457 717.724 269.745 712.873C272.033 708.019 275.304 704.25 279.564 701.568C283.861 698.883 288.928 697.542 294.763 697.542C301.941 697.542 307.896 699.693 312.627 703.995C317.397 708.295 319.94 713.878 320.258 720.742H309.905C309.59 716.599 308.013 713.206 305.173 710.563C302.376 707.881 298.904 706.54 294.763 706.54C289.204 706.54 284.886 708.55 281.81 712.576C278.776 716.56 277.256 722.342 277.256 729.917V731.987C277.256 739.365 278.776 745.047 281.81 749.031C284.847 753.019 289.186 755.011 294.823 755.011ZM347.405 683.222V698.727H359.353V707.191H347.405V746.901C347.405 749.466 347.938 751.399 349.003 752.701C350.067 753.964 351.881 754.597 354.445 754.597C355.704 754.597 357.44 754.36 359.647 753.886V762.763C356.768 763.552 353.971 763.948 351.249 763.948C346.361 763.948 342.673 762.466 340.188 759.508C337.705 756.55 336.464 752.347 336.464 746.901V707.191H324.809V698.727H336.464V683.222H347.405ZM470.135 762.763H458.718L415.365 696.36V762.763H403.95V676.592H415.365L458.838 743.292V676.592H470.135V762.763ZM528.099 762.763C527.466 761.5 526.954 759.253 526.561 756.016C521.473 761.302 515.401 763.948 508.343 763.948C502.035 763.948 496.848 762.172 492.788 758.62C488.767 755.029 486.755 750.493 486.755 745.008C486.755 738.342 489.277 733.172 494.326 729.503C499.411 725.792 506.55 723.938 515.737 723.938H526.384V718.909C526.384 715.081 525.239 712.042 522.951 709.795C520.666 707.506 517.293 706.363 512.838 706.363C508.934 706.363 505.663 707.347 503.021 709.321C500.38 711.292 499.057 713.68 499.057 716.482H488.056C488.056 713.287 489.181 710.209 491.427 707.248C493.714 704.25 496.791 701.883 500.655 700.146C504.559 698.412 508.835 697.542 513.488 697.542C520.861 697.542 526.639 699.396 530.819 703.107C534.998 706.777 537.166 711.847 537.325 718.315V747.789C537.325 753.67 538.075 758.344 539.574 761.815V762.763H528.099ZM509.941 754.42C513.371 754.42 516.625 753.532 519.701 751.756C522.774 749.979 525.002 747.672 526.384 744.831V731.693H517.806C504.4 731.693 497.696 735.617 497.696 743.469C497.696 746.901 498.841 749.586 501.126 751.519C503.414 753.451 506.352 754.42 509.941 754.42ZM569.323 683.222V698.727H581.272V707.191H569.323V746.901C569.323 749.466 569.857 751.399 570.921 752.701C571.986 753.964 573.8 754.597 576.363 754.597C577.623 754.597 579.359 754.36 581.568 753.886V762.763C578.687 763.552 575.89 763.948 573.167 763.948C568.28 763.948 564.592 762.466 562.106 759.508C559.624 756.55 558.382 752.347 558.382 746.901V707.191H546.731V698.727H558.382V683.222H569.323ZM605.996 762.763H595.052V698.727H605.996V762.763ZM594.164 681.74C594.164 679.967 594.698 678.467 595.763 677.243C596.866 676.018 598.482 675.409 600.611 675.409C602.743 675.409 604.359 676.018 605.462 677.243C606.565 678.467 607.117 679.967 607.117 681.74C607.117 683.516 606.565 684.995 605.462 686.18C604.359 687.362 602.743 687.956 600.611 687.956C598.482 687.956 596.866 687.362 595.763 686.18C594.698 684.995 594.164 683.516 594.164 681.74ZM644.677 747.909L660.526 698.727H671.707L648.758 762.763H640.417L617.234 698.727H628.411L644.677 747.909ZM707.963 763.948C699.289 763.948 692.231 761.107 686.789 755.425C681.347 749.703 678.627 742.068 678.627 732.521V730.508C678.627 724.157 679.83 718.495 682.234 713.524C684.678 708.511 688.069 704.604 692.408 701.805C696.785 698.964 701.517 697.542 706.602 697.542C714.922 697.542 721.39 700.284 726.004 705.768C730.615 711.253 732.924 719.104 732.924 729.323V733.88H689.568C689.727 740.196 691.559 745.305 695.07 749.211C698.617 753.076 703.115 755.011 708.554 755.011C712.419 755.011 715.693 754.222 718.373 752.644C721.054 751.066 723.402 748.974 725.413 746.37L732.097 751.579C726.733 759.823 718.688 763.948 707.963 763.948ZM706.602 706.54C702.188 706.54 698.479 708.157 695.484 711.391C692.486 714.589 690.633 719.086 689.925 724.886H721.98V724.058C721.665 718.495 720.166 714.193 717.486 711.154C714.805 708.079 711.177 706.54 706.602 706.54Z" fill="#61DAFB"/>
</svg>
